subject01_walk1_RRA_states
nRows=5
nColumns=47

# SIMM Motion File Header:
name subject01_walk1_RRA_states
datacolumns 47
datarows 5
otherdata 1
range 1.62299999999993180000 1.62499999999993160000
endheader
time	pelvis_tx	pelvis_ty	pelvis_tz	pelvis_tilt	pelvis_list	pelvis_rotation	hip_flexion_r	hip_adduction_r	hip_rotation_r	knee_angle_r	ankle_angle_r	subtalar_angle_r	mtp_angle_r	hip_flexion_l	hip_adduction_l	hip_rotation_l	knee_angle_l	ankle_angle_l	subtalar_angle_l	mtp_angle_l	lumbar_extension	lumbar_bending	lumbar_rotation	pelvis_tx_u	pelvis_ty_u	pelvis_tz_u	pelvis_tilt_u	pelvis_list_u	pelvis_rotation_u	hip_flexion_r_u	hip_adduction_r_u	hip_rotation_r_u	knee_angle_r_u	ankle_angle_r_u	subtalar_angle_r_u	mtp_angle_r_u	hip_flexion_l_u	hip_adduction_l_u	hip_rotation_l_u	knee_angle_l_u	ankle_angle_l_u	subtalar_angle_l_u	mtp_angle_l_u	lumbar_extension_u	lumbar_bending_u	lumbar_rotation_u
      1.62299999999993180000	      0.61405625379420881000	      1.05082917363557420000	      0.00060460420143939393	      6.10671579889825810000	     -1.82876307123411270000	      0.34484554830141662000	     18.78434746493540100000	     -3.51193658268321180000	     -7.78482255473266260000	    -58.22082219549337600000	      2.45639901072777270000	     -0.01004199765877109000	      0.01096376594369612000	     -4.74507696003534730000	      1.30887524151938340000	     -1.08707488835552280000	     -9.34298349591072610000	      6.82857777993833630000	      0.11118833741906541000	      0.06799703521907270200	    -15.86050179383011600000	     -0.26771789975786392000	     -6.54096922808864440000	     -0.11849779675068479000	     -0.02900808681302322400	     -0.06282469432844989300	     -9.93122166815385650000	      0.79187384971307984000	      9.27828174900542280000	     72.85629618148465200000	     -0.15671831747551743000	    -37.80451728512078800000	    234.23176866753857000000	     -5.20321269306065040000	      0.04063479956172641500	     -0.02803870652694422100	    -75.02174213931428400000	      3.03913031306910990000	     -0.90049473017280424000	     46.08554923011036000000	     29.59062145243237300000	      0.30186391080022273000	     -0.62339846115987596000	      1.19104027600193650000	      8.00468420643299440000	     -7.34489250020678600000
      1.62349999999993180000	      0.61399700148563874000	      1.05081442976881000000	      0.00057328655949044865	      6.10173641170677070000	     -1.82832966649201430000	      0.34942808993450031000	     18.82066176141167400000	     -3.51206084276960070000	     -7.80378442405187570000	    -58.10339467251554900000	      2.45378679224246720000	     -0.01002169352331920400	      0.01094967665099702400	     -4.78256652463864910000	      1.31043378504278830000	     -1.08758794156346750000	     -9.31995553150567700000	      6.84336643857761300000	      0.11133802992290291000	      0.06768497089948144500	    -15.85989560675193900000	     -0.26376261596090517000	     -6.54458543677487280000	     -0.11851059079084139000	     -0.02996696395816277400	     -0.06244573763617440600	     -9.98622860019661830000	      0.94174870328961424000	      9.05207128018689920000	     72.40042535547135600000	     -0.33979112275591655000	    -38.04257388946015800000	    235.47854555369034000000	     -5.24509500530589800000	      0.04058236880607748300	     -0.02832159445503088000	    -74.93683560055778500000	      3.19508488773814970000	     -1.15143493762607040000	     46.02661548695714100000	     29.56458631819096200000	      0.29669696727305422000	     -0.62539553343628840000	      1.23368517114033180000	      7.81643797443801350000	     -7.12025719979958450000
      1.62399999999993170000	      0.61393774405009316000	      1.05079920708791370000	      0.00054215860622081340	      6.09672966908840940000	     -1.82782131741592970000	      0.35389780373611984000	     18.85674742684366500000	     -3.51227584364113320000	     -7.82286473901519220000	    -57.98534342768892500000	      2.45115447761225450000	     -0.01000141522042423900	      0.01093544472035637100	     -4.82001411515789880000	      1.31207036522738260000	     -1.08822605180821900000	     -9.29695657385311240000	      6.85814264610204210000	      0.11148503247140186000	      0.06737165627334955300	    -15.85926813170757700000	     -0.25990147737859665000	     -6.54808979832059100000	     -0.11851830476146627000	     -0.03092334183568679100	     -0.06206592678602083900	    -10.04064262933662200000	      1.09165416530784180000	      8.82696596758200510000	     71.94177430942369300000	     -0.51968280143243184000	    -38.27829247241909600000	    236.72665442041924000000	     -5.28360594158377420000	      0.04053035538000490000	     -0.02860224116349709500	    -74.85384642333524100000	      3.35127223030972980000	     -1.40074583462154380000	     45.96952153241624500000	     29.54024481523385900000	      0.29152066737248106000	     -0.62731920050274836000	      1.27619161189073680000	      7.62809826926210550000	     -6.89750034347601380000
      1.62449999999993170000	      0.61387848402669221000	      1.05078350683388220000	      0.00051122077183475957	      6.09169586921304430000	     -1.82723800658217030000	      0.35825524468324338000	     18.89260307390341300000	     -3.51257999463986750000	     -7.84206231546359600000	    -57.86666779932400600000	      2.44850373128472930000	     -0.00998116305706596600	      0.01092107476022702700	     -4.85742069313542670000	      1.31378509537516490000	     -1.08898841132729650000	     -9.27398570464328740000	      6.87290689806695100000	      0.11162955750312169000	      0.06705779682426397900	    -15.85861943930622800000	     -0.25613453338104775000	     -6.55148325452760890000	     -0.11852094387042994000	     -0.03187727674933593000	     -0.06168528158080764700	    -10.09445568428620600000	      1.24159406118554010000	      8.60299358936667780000	     71.48035283174212400000	     -0.69638883737528390000	    -38.51160427759642600000	    237.97607436919873000000	     -5.31884691479415570000	      0.04047895398629220600	     -0.02888078279909379500	    -74.77278988144587400000	      3.50768812793224120000	     -1.64839963359824290000	     45.91425987883814500000	     29.51721736887791200000	      0.28638314735380410000	     -0.62841941374141586000	      1.31855288836934650000	      7.43966448216465450000	     -6.67664822263177630000
      1.62499999999993160000	      0.61381922395103194000	      1.05076733021043190000	      0.00048047346075702604	      6.08663531537832280000	     -1.82657971620348980000	      0.36250099052210150000	     18.92822731900865200000	     -3.51297170159481900000	     -7.86137593019142940000	    -57.74736713805936000000	      2.44583615883269130000	     -0.00996093622442846200	      0.01090656428079059100	     -4.89478723019172790000	      1.31557809147249280000	     -1.08987416905814880000	     -9.25104200854105940000	      6.88766014446924490000	      0.11177141780025668000	      0.06674327109061233000	    -15.85794960470526900000	     -0.25246182960281260000	     -6.55476676830313920000	     -0.11851851412802888000	     -0.03282881452013936000	     -0.06130382007253293300	    -10.14765671903404800000	      1.39157683482885930000	      8.38018061063086250000	     71.01616781073842300000	     -0.86990950458361749000	    -38.74243708941588000000	    239.22678434364340000000	     -5.35091903682092610000	      0.04042783675825423900	     -0.02915725145200953600	    -74.69368448255593800000	      3.66433269228813920000	     -1.89435852552723660000	     45.86083116993402300000	     29.49590206793507400000	      0.28125606252898483000	     -0.62936180999896096000	      1.36075866568366390000	      7.25113050243449210000	     -6.45772691420571480000
